<svg xmlns="http://www.w3.org/2000/svg" xmlns:xlink="http://www.w3.org/1999/xlink" version="1.1" x="0px" y="0px" viewBox="0 0 16 20" enable-background="new 0 0 16 16" xml:space="preserve"><path d="M16,16H0V0h16V16z M0.485,15.516h15.031V0.485H0.485V15.516z"/><rect y="2.875" width="16" height="0.5"/><path d="M12.35,2.617c-0.51,0-0.922-0.413-0.922-0.922c0-0.508,0.412-0.922,0.922-0.922c0.508,0,0.922,0.414,0.922,0.922  C13.271,2.204,12.857,2.617,12.35,2.617z M12.35,1.273c-0.232,0-0.422,0.189-0.422,0.422c0,0.233,0.188,0.422,0.422,0.422  c0.232,0,0.422-0.189,0.422-0.422C12.771,1.462,12.582,1.273,12.35,1.273z"/><path d="M14.389,2.617c-0.509,0-0.922-0.413-0.922-0.922c0-0.508,0.413-0.922,0.922-0.922s0.923,0.414,0.923,0.922  C15.312,2.204,14.897,2.617,14.389,2.617z M14.389,1.273c-0.231,0-0.422,0.189-0.422,0.422c0,0.233,0.188,0.422,0.422,0.422  c0.234,0,0.423-0.189,0.423-0.422C14.812,1.462,14.621,1.273,14.389,1.273z"/><path d="M10.309,2.617c-0.509,0-0.922-0.413-0.922-0.922c0-0.508,0.413-0.922,0.922-0.922c0.51,0,0.922,0.414,0.922,0.922  C11.23,2.204,10.818,2.617,10.309,2.617z M10.309,1.273c-0.232,0-0.422,0.189-0.422,0.422c0,0.233,0.189,0.422,0.422,0.422  s0.422-0.189,0.422-0.422C10.73,1.462,10.541,1.273,10.309,1.273z"/><path d="M1.609,9.506l3.646-2.857c0.109-0.085,0.128-0.243,0.043-0.351C5.213,6.188,5.056,6.169,4.946,6.254L1.037,9.317  C1.036,9.318,1.036,9.318,1.036,9.319C1.023,9.33,1.005,9.33,0.995,9.343c-0.023,0.028-0.02,0.065-0.028,0.099  C0.96,9.465,0.95,9.482,0.949,9.506c0.001,0.022,0.01,0.039,0.017,0.061c0.009,0.035,0.006,0.072,0.029,0.103  c0.012,0.016,0.033,0.016,0.048,0.027l3.903,3.061c0.109,0.086,0.266,0.065,0.352-0.043c0.085-0.109,0.066-0.267-0.043-0.353  L1.609,9.506z"/><path d="M15.051,9.505c-0.001-0.022-0.011-0.038-0.017-0.06c-0.008-0.035-0.005-0.074-0.029-0.104  c-0.012-0.015-0.032-0.015-0.047-0.026l-3.903-3.06c-0.109-0.085-0.268-0.066-0.353,0.043c-0.085,0.108-0.065,0.266,0.043,0.351  l3.644,2.856l-3.644,2.856c-0.108,0.086-0.128,0.243-0.043,0.353c0.086,0.108,0.243,0.129,0.353,0.043l3.898-3.059  c0.017-0.013,0.039-0.013,0.052-0.029c0.024-0.031,0.021-0.069,0.029-0.105C15.041,9.543,15.05,9.526,15.051,9.505z"/><path d="M6.243,13.909c-0.058,0.125-0.207,0.182-0.332,0.122l0,0C5.786,13.974,5.73,13.825,5.789,13.7l3.968-8.598  c0.058-0.125,0.206-0.18,0.332-0.122l0,0c0.125,0.058,0.181,0.206,0.122,0.332L6.243,13.909z"/><text x="0" y="31" fill="#000000" font-size="5px" font-weight="bold" font-family="'Helvetica Neue', Helvetica, Arial-Unicode, Arial, Sans-serif">Created by Adnen Kadri</text><text x="0" y="36" fill="#000000" font-size="5px" font-weight="bold" font-family="'Helvetica Neue', Helvetica, Arial-Unicode, Arial, Sans-serif">from the Noun Project</text></svg>